HIERARCHY
ROOT Hips
{
  OFFSET 0.000000 0.000000 0.000000
  CHANNELS 6 Xposition Yposition Zposition Xrotation Yrotation Zrotation
  JOINT Spine
  {
    OFFSET 0.211591 24.227834 -3.764787
    CHANNELS 3 Xrotation Yrotation Zrotation
    JOINT Chest
    {
      OFFSET 0.211591 24.227834 -3.764787
      CHANNELS 3 Xrotation Yrotation Zrotation
      JOINT Neck
      {
        OFFSET -1.100772 8.441563 -3.430650
        CHANNELS 3 Xrotation Yrotation Zrotation
        JOINT Head
        {
          OFFSET -1.192129 7.757112 -7.601908
          CHANNELS 3 Xrotation Yrotation Zrotation
          End Site
          {
            OFFSET -0.357639 2.327134 -2.280572
          }
        }
      }
      JOINT LeftShoulder
      {
        OFFSET 17.192089 0.613400 -1.554494
        CHANNELS 3 Xrotation Yrotation Zrotation
        JOINT LeftArm
        {
          OFFSET 6.822346 -20.001605 -11.416031
          CHANNELS 3 Xrotation Yrotation Zrotation
          JOINT LeftForeArm
          {
            OFFSET -10.811707 -3.287858 -20.004664
            CHANNELS 3 Xrotation Yrotation Zrotation
            JOINT LeftHand
            {
              OFFSET -2.972239 -0.032078 -2.791873
              CHANNELS 3 Xrotation Yrotation Zrotation
              End Site
              {
                OFFSET -0.891672 -0.009623 -0.837562
              }
            }
          }
        }
      }
      JOINT RightShoulder
      {
        OFFSET -17.192089 -0.613400 1.554494
        CHANNELS 3 Xrotation Yrotation Zrotation
        JOINT RightArm
        {
          OFFSET -7.078612 -20.128798 -9.457155
          CHANNELS 3 Xrotation Yrotation Zrotation
          JOINT RightForeArm
          {
            OFFSET 6.068787 -1.370308 -22.325569
            CHANNELS 3 Xrotation Yrotation Zrotation
            JOINT RightHand
            {
              OFFSET 2.627653 0.279547 -3.282648
              CHANNELS 3 Xrotation Yrotation Zrotation
              End Site
              {
                OFFSET 0.788296 0.083864 -0.984794
              }
            }
          }
        }
      }
    }
  }
  JOINT LeftUpLeg
  {
    OFFSET 11.367086 0.027478 -2.758015
    CHANNELS 3 Xrotation Yrotation Zrotation
    JOINT LeftLeg
    {
      OFFSET 2.451199 -39.057141 -4.768226
      CHANNELS 3 Xrotation Yrotation Zrotation
      JOINT LeftFoot
      {
        OFFSET 10.058204 -39.973237 0.774249
        CHANNELS 3 Xrotation Yrotation Zrotation
        End Site
        {
          OFFSET 3.017461 -11.991971 0.232275
        }
      }
    }
  }
  JOINT RightUpLeg
  {
    OFFSET -11.367086 -0.027478 2.758015
    CHANNELS 3 Xrotation Yrotation Zrotation
    JOINT RightLeg
    {
      OFFSET -4.668361 -37.080477 -5.635053
      CHANNELS 3 Xrotation Yrotation Zrotation
      JOINT RightFoot
      {
        OFFSET -2.542494 -41.040053 5.594103
        CHANNELS 3 Xrotation Yrotation Zrotation
        End Site
        {
          OFFSET -0.762748 -12.312016 1.678231
        }
      }
    }
  }
}
MOTION
Frames: 12
Frame Time: 0.083333
0.083194 54.951628 -16.758011 -1.205293 -0.044639 -0.235813 0.000000 0.000000 0.000000 -0.037129 -1.372897 -2.736094 -0.665755 -2.087056 0.090699 5.000000 0.000000 0.000000 28.035064 -13.393499 33.973809 3.003749 11.014792 -31.878515 0.000000 0.000000 0.000000 0.000000 0.000000 0.000000 20.138965 -6.303412 5.991581 -9.976293 5.400389 0.364517 -27.516079 -34.564070 -14.357932 0.000000 0.000000 0.000000 18.486877 -0.289267 13.402745 -7.583428 4.765532 -2.024456 0.000000 0.000000 0.000000 -15.179184 1.824506 -5.374510 -4.865736 -1.706303 7.724524 0.000000 0.000000 0.000000
-0.322459 54.086024 -19.039739 -2.439222 -0.519042 -3.002252 0.000000 0.000000 0.000000 2.692753 -1.076349 -1.533340 -0.812422 -3.263291 -0.096242 5.000000 0.000000 0.000000 25.186000 -8.450737 26.863092 6.390258 8.122003 -22.681086 0.000000 0.000000 0.000000 0.000000 0.000000 0.000000 19.878800 -10.702426 13.237217 -12.919034 9.597742 -4.749298 0.000000 0.000000 0.000000 0.000000 0.000000 0.000000 25.895779 0.882900 13.453103 -16.759358 5.626862 0.501594 0.000000 0.000000 0.000000 -16.165194 1.733785 -3.848554 -10.997495 -3.426694 3.848162 0.000000 0.000000 0.000000
-1.065967 53.828967 -23.316475 -2.923228 -0.780750 -4.435576 0.000000 0.000000 0.000000 4.319961 -0.698260 -0.978544 -0.479859 -4.160757 -0.702314 5.000000 0.000000 0.000000 5.179424 0.485823 10.244972 28.980305 -5.797044 -9.601912 0.000000 0.000000 0.000000 0.000000 0.000000 0.000000 12.858168 -9.512030 16.082871 -2.460463 7.899153 -10.401202 0.000000 0.000000 0.000000 0.000000 0.000000 0.000000 24.207764 1.318161 10.983428 -20.827556 4.236799 5.899277 0.000000 0.000000 0.000000 -14.517726 1.707344 -5.934707 -15.568271 -3.315355 7.649467 0.000000 0.000000 0.000000
-1.858963 54.001921 -26.438451 -1.789860 -0.713338 -4.232385 0.000000 0.000000 0.000000 2.180951 -1.000883 -0.544667 0.259002 -4.295316 -1.472548 5.000000 0.000000 0.000000 1.473104 6.662635 -4.498048 23.869752 -6.255013 6.440189 0.000000 0.000000 0.000000 0.000000 0.000000 0.000000 8.063065 -4.495643 8.253438 0.480712 4.041914 -4.473094 0.000000 0.000000 0.000000 0.000000 0.000000 0.000000 13.551750 1.241486 7.216532 -16.215875 1.624557 12.278930 0.000000 0.000000 0.000000 -17.288932 1.621805 -9.956842 -11.292426 -2.060205 14.890213 0.000000 0.000000 0.000000
-2.500498 54.401359 -26.979933 -0.048651 -0.576044 -3.608218 0.000000 0.000000 0.000000 0.132644 -0.657435 0.494613 0.017836 -2.415745 -0.570555 5.000000 0.000000 0.000000 2.205893 5.744347 -7.251654 18.185249 -4.126408 7.105794 0.000000 0.000000 0.000000 0.000000 0.000000 0.000000 2.051180 0.504232 -1.169504 7.980385 0.650153 2.326551 0.000000 0.000000 0.000000 0.000000 0.000000 0.000000 0.158183 0.569875 2.294295 -4.069953 0.195986 16.659332 0.000000 0.000000 0.000000 -21.315330 1.709907 -12.097933 -6.289534 -0.793152 17.157438 0.000000 0.000000 0.000000
-3.341662 54.526059 -26.822082 2.971619 -0.317770 -2.073728 0.000000 0.000000 0.000000 -3.098704 0.021743 1.565437 -0.412427 0.308117 0.729902 5.000000 0.000000 0.000000 4.773154 3.103065 -6.692317 19.358515 -2.364067 3.137226 -40.587185 18.094723 14.189882 0.000000 0.000000 0.000000 -2.620533 0.503920 -2.732728 15.228763 0.914730 1.421601 0.000000 0.000000 0.000000 0.000000 0.000000 0.000000 -3.593548 0.610788 -4.470949 0.207386 0.016306 21.480680 0.000000 0.000000 0.000000 -24.070557 2.396783 -15.044268 -0.875317 0.432735 18.083729 0.000000 0.000000 0.000000
-4.217690 54.375048 -26.034057 4.788507 0.086277 1.215588 0.000000 0.000000 0.000000 -4.893440 0.939964 1.125607 0.003775 1.714669 0.438104 5.000000 0.000000 0.000000 11.294259 0.781488 -1.749748 15.923140 -1.640679 -3.797483 -48.203553 49.607702 27.039438 0.000000 0.000000 0.000000 -8.085513 -0.174280 0.743724 18.780367 1.253126 -3.525692 0.000000 0.000000 0.000000 0.000000 0.000000 0.000000 -7.148467 0.409429 -7.855553 4.382373 0.516534 23.815781 0.000000 0.000000 0.000000 -21.244384 3.257776 -16.132567 -3.307369 -0.375282 15.554637 0.000000 0.000000 0.000000
-4.636830 54.225600 -24.992847 5.409916 0.408067 4.264097 0.000000 0.000000 0.000000 -4.937630 1.507312 -0.456598 0.540332 2.561057 0.556066 5.000000 0.000000 0.000000 17.206232 2.670560 -2.407204 9.924676 -2.057182 -3.044890 -45.900889 51.950764 26.531846 0.000000 0.000000 0.000000 -9.468491 -0.337286 1.808489 21.030351 0.832536 -4.909333 0.000000 0.000000 0.000000 0.000000 0.000000 0.000000 -7.090181 0.090862 -5.628533 6.760800 0.774757 20.188575 0.000000 0.000000 0.000000 -21.032225 3.382863 -15.738809 -2.918161 -0.573447 13.638813 0.000000 0.000000 0.000000
-3.927211 55.572983 -25.419419 5.189963 0.478081 4.818761 0.000000 0.000000 0.000000 -4.667908 1.635055 -0.566982 0.861307 2.795676 0.632039 5.000000 0.000000 0.000000 14.702521 2.936518 -1.968748 9.265050 -1.462136 -2.317284 0.000000 0.000000 0.000000 0.000000 0.000000 0.000000 -5.723215 -2.019515 3.944565 17.027519 2.007485 -6.471711 -64.457177 2.869903 -40.762484 0.000000 0.000000 0.000000 -3.615164 -0.755496 0.256533 7.670882 1.222866 11.079866 0.000000 0.000000 0.000000 -20.562945 3.185894 -13.623975 -2.928537 -0.857380 10.414291 0.000000 0.000000 0.000000
-2.550583 57.431163 -26.329948 2.869095 0.506147 4.232701 0.000000 0.000000 0.000000 -2.561448 0.895494 -1.246737 0.751562 2.062619 0.578918 5.000000 0.000000 0.000000 7.474890 2.617429 -0.696252 11.358830 -0.319207 -0.793324 0.000000 0.000000 0.000000 0.000000 0.000000 0.000000 -1.780567 -0.178224 2.642249 8.769369 -0.347333 -2.707648 0.000000 0.000000 0.000000 0.000000 0.000000 0.000000 4.184428 -1.090604 5.109215 0.691009 2.368687 7.128883 0.000000 0.000000 0.000000 -18.505357 2.732663 -7.627672 -6.749723 -2.651500 1.310384 0.000000 0.000000 0.000000
-1.114098 58.187712 -27.490197 0.878538 0.258366 2.253899 0.000000 0.000000 0.000000 -1.218293 -0.242865 -2.220511 0.245523 0.118108 0.274086 5.000000 0.000000 0.000000 1.082984 7.196061 -3.494891 23.024483 -3.904275 6.756929 0.000000 0.000000 0.000000 0.000000 0.000000 0.000000 5.057909 2.024317 0.479481 -3.145757 -5.448232 3.204310 0.000000 0.000000 0.000000 0.000000 0.000000 0.000000 18.353715 -1.139980 13.210616 -8.158735 5.186478 -0.555452 0.000000 0.000000 0.000000 -17.726817 2.095943 -0.841903 -10.772675 -5.060441 -7.360111 0.000000 0.000000 0.000000
-0.068233 57.688342 -28.124368 -2.414264 -0.305356 -1.900815 0.000000 0.000000 0.000000 1.265387 -1.780971 -2.448001 0.173630 -2.822987 -0.184199 5.000000 0.000000 0.000000 3.488941 11.645293 -2.531416 31.169912 -6.347995 8.590990 0.000000 0.000000 0.000000 0.000000 0.000000 0.000000 16.378068 -13.216985 20.329130 -0.391558 2.396658 -14.993761 106.191825 -55.011292 73.436783 0.000000 0.000000 0.000000 22.445589 0.152812 18.098874 -13.049945 7.077656 -3.590947 0.000000 0.000000 0.000000 -19.477738 1.294992 2.040530 -13.692382 -7.433401 -10.874020 0.000000 0.000000 0.000000
